solid wrist3_0
facet normal 0.2011038 -0.408871 0.8901583
outer loop
	vertex 0.001386706 0.0767061 0.04992149
	vertex 0.003558678 0.07938608 0.05066178
	vertex -0.001663349 0.07877917 0.05156277
endloop
endfacet
facet normal 0.09849111 -0.5245937 0.8456364
outer loop
	vertex -0.001663349 0.07877917 0.05156277
	vertex 0.000396616 0.06794803 0.04460371
	vertex 0.001386706 0.0767061 0.04992149
endloop
endfacet
facet normal 0.2817644 -0.4608222 0.8415769
outer loop
	vertex 0.003558678 0.07938608 0.05066178
	vertex 0.001386706 0.0767061 0.04992149
	vertex 0.01286731 0.06793355 0.04127414
endloop
endfacet
facet normal 0.2190777 -0.5243737 0.8228227
outer loop
	vertex 0.001386706 0.0767061 0.04992149
	vertex 0.000396616 0.06794803 0.04460371
	vertex 0.01286731 0.06793355 0.04127414
endloop
endfacet
facet normal -0.8920575 0.01342305 0.4517225
outer loop
	vertex -0.04409355 0.1077211 0.009898181
	vertex -0.03575267 0.06794669 0.02755158
	vertex -0.03419712 0.1078056 0.02943904
endloop
endfacet
facet normal -0.9129427 -0.01038205 0.4079556
outer loop
	vertex -0.04409355 0.1077211 0.009898181
	vertex -0.04449029 0.06794689 0.007998115
	vertex -0.03575267 0.06794669 0.02755158
endloop
endfacet
facet normal -0.7483717 0.5459607 0.376652
outer loop
	vertex -0.04034562 0.110198 0.0137548
	vertex -0.04409355 0.1077211 0.009898181
	vertex -0.03419712 0.1078056 0.02943904
endloop
endfacet
facet normal -0.9999498 0.009899577 0.001565813
outer loop
	vertex -0.04449029 0.06794689 0.007998115
	vertex -0.04409355 0.1077211 0.009898181
	vertex -0.04412812 0.1076261 -0.01158327
endloop
endfacet
facet normal -0.5779282 0.8151976 0.03810253
outer loop
	vertex -0.04409355 0.1077211 0.009898181
	vertex -0.04034562 0.110198 0.0137548
	vertex -0.04201872 0.1102028 -0.01172494
endloop
endfacet
facet normal -0.7738109 0.6334149 -0.001555709
outer loop
	vertex -0.04412812 0.1076261 -0.01158327
	vertex -0.04409355 0.1077211 0.009898181
	vertex -0.04201872 0.1102028 -0.01172494
endloop
endfacet
facet normal -0.127358 0.06845725 0.9894916
outer loop
	vertex -0.001663349 0.07877917 0.05156277
	vertex 0.0005824213 0.08321346 0.05154504
	vertex -0.002395748 0.08287492 0.05118514
endloop
endfacet
facet normal 0.1791725 -0.08682488 0.9799789
outer loop
	vertex 0.0005824213 0.08321346 0.05154504
	vertex -0.001663349 0.07877917 0.05156277
	vertex 0.003558678 0.07938608 0.05066178
endloop
endfacet
facet normal -0.5389988 -0.01874197 0.842098
outer loop
	vertex -0.001663349 0.07877917 0.05156277
	vertex -0.002395748 0.08287492 0.05118514
	vertex -0.01754857 0.06791845 0.04115345
endloop
endfacet
facet normal -0.1562074 -0.5547696 0.8172086
outer loop
	vertex -0.001663349 0.07877917 0.05156277
	vertex -0.01754857 0.06791845 0.04115345
	vertex 0.000396616 0.06794803 0.04460371
endloop
endfacet
facet normal 0.04306576 0.7016834 0.7111861
outer loop
	vertex 0.006310002 0.110192 0.04162041
	vertex -9.863509E-08 0.1076964 0.04446475
	vertex 0.007990305 0.1076826 0.0439945
endloop
endfacet
facet normal 0.04112488 0.704051 0.7089576
outer loop
	vertex -0.000366244 0.1102347 0.04196528
	vertex -9.863509E-08 0.1076964 0.04446475
	vertex 0.006310002 0.110192 0.04162041
endloop
endfacet
facet normal -0.03647062 0.6984963 0.7146837
outer loop
	vertex -9.863509E-08 0.1076964 0.04446475
	vertex -0.000366244 0.1102347 0.04196528
	vertex -0.006021411 0.1076989 0.04415503
endloop
endfacet
facet normal 0.05690326 0.2786081 0.9587176
outer loop
	vertex -9.863509E-08 0.1076964 0.04446475
	vertex 0.0005824213 0.08321346 0.05154504
	vertex 0.007990305 0.1076826 0.0439945
endloop
endfacet
facet normal -0.04925324 0.2763903 0.9597825
outer loop
	vertex -9.863509E-08 0.1076964 0.04446475
	vertex -0.006021411 0.1076989 0.04415503
	vertex 0.0005824213 0.08321346 0.05154504
endloop
endfacet
facet normal 0.0004962633 -0.9999999 6.662491E-05
outer loop
	vertex 0.01286731 0.06793355 0.04127414
	vertex -0.01754857 0.06791845 0.04115345
	vertex 0.04396093 0.06794693 0.01040227
endloop
endfacet
facet normal 0.0007694478 -0.9999996 0.0003417718
outer loop
	vertex 0.04396093 0.06794693 0.01040227
	vertex 0.03838475 0.06794696 0.0230652
	vertex 0.01286731 0.06793355 0.04127414
endloop
endfacet
facet normal 0.2945508 -0.4511404 0.8424442
outer loop
	vertex 0.01286731 0.06793355 0.04127414
	vertex 0.02622193 0.0679448 0.03661088
	vertex 0.003558678 0.07938608 0.05066178
endloop
endfacet
facet normal 0.001146073 -0.9999989 0.0008695626
outer loop
	vertex 0.01286731 0.06793355 0.04127414
	vertex 0.03838475 0.06794696 0.0230652
	vertex 0.02622193 0.0679448 0.03661088
endloop
endfacet
facet normal 0.0004722467 -0.9999812 0.006116551
outer loop
	vertex 0.000396616 0.06794803 0.04460371
	vertex -0.01754857 0.06791845 0.04115345
	vertex 0.01286731 0.06793355 0.04127414
endloop
endfacet
facet normal -0.001072558 0.9989637 0.04550293
outer loop
	vertex -1.021398E-07 0.1166963 0.02771496
	vertex -0.005557575 0.1165814 0.03010718
	vertex 0.001215002 0.1167026 0.02760523
endloop
endfacet
facet normal -0.01232311 0.9997358 0.01940332
outer loop
	vertex -1.021398E-07 0.1166963 0.02771496
	vertex -0.02159425 0.1165426 0.02191805
	vertex -0.005557575 0.1165814 0.03010718
endloop
endfacet
facet normal -0.009102026 0.9999312 0.007399246
outer loop
	vertex -1.021398E-07 0.1166963 0.02771496
	vertex -0.01455041 0.1166251 0.01943886
	vertex -0.02159425 0.1165426 0.02191805
endloop
endfacet
facet normal -0.006185981 0.9999782 0.002272114
outer loop
	vertex -1.021398E-07 0.1166963 0.02771496
	vertex -0.003763945 0.1166999 0.01588386
	vertex -0.01455041 0.1166251 0.01943886
endloop
endfacet
facet normal -0.005015719 0.9999857 0.001899819
outer loop
	vertex -0.003763945 0.1166999 0.01588386
	vertex -1.021398E-07 0.1166963 0.02771496
	vertex 0.001215002 0.1167026 0.02760523
endloop
endfacet
facet normal 0.02055131 0.9991567 -0.03554753
outer loop
	vertex 0.01919894 0.1165111 -0.02302744
	vertex 0.002118743 0.1165448 -0.03195513
	vertex 0.02215606 0.1165364 -0.02060622
endloop
endfacet
facet normal 0.03216046 0.9982454 -0.04971665
outer loop
	vertex 0.01521067 0.1163959 -0.02792014
	vertex 0.01919894 0.1165111 -0.02302744
	vertex 0.02215606 0.1165364 -0.02060622
endloop
endfacet
facet normal 0.02484613 0.9987327 -0.04376586
outer loop
	vertex 0.01919894 0.1165111 -0.02302744
	vertex 0.01521067 0.1163959 -0.02792014
	vertex 0.002118743 0.1165448 -0.03195513
endloop
endfacet
facet normal -0.4411236 0.8452852 -0.3015011
outer loop
	vertex -0.04201872 0.1102028 -0.01172494
	vertex -0.02312964 0.1164981 -0.02171174
	vertex -0.02648997 0.1101986 -0.03445652
endloop
endfacet
facet normal -0.4660533 0.8254297 -0.3185278
outer loop
	vertex -0.02648997 0.1101986 -0.03445652
	vertex -0.03199492 0.1076448 -0.03301984
	vertex -0.04201872 0.1102028 -0.01172494
endloop
endfacet
facet normal -0.4194475 0.8749897 -0.2417781
outer loop
	vertex -0.04201872 0.1102028 -0.01172494
	vertex -0.02977188 0.1164996 -0.01018303
	vertex -0.02312964 0.1164981 -0.02171174
endloop
endfacet
facet normal -0.7179784 0.5654756 -0.4058869
outer loop
	vertex -0.04201872 0.1102028 -0.01172494
	vertex -0.03199492 0.1076448 -0.03301984
	vertex -0.04412812 0.1076261 -0.01158327
endloop
endfacet
facet normal -0.4527589 0.8906776 -0.0412637
outer loop
	vertex -0.02977188 0.1164996 -0.01018303
	vertex -0.04201872 0.1102028 -0.01172494
	vertex -0.03117966 0.1163908 0.002915473
endloop
endfacet
facet normal -0.5307391 0.8468118 0.03500986
outer loop
	vertex -0.04034562 0.110198 0.0137548
	vertex -0.03117966 0.1163908 0.002915473
	vertex -0.04201872 0.1102028 -0.01172494
endloop
endfacet
facet normal -0.03872694 0.9992413 0.004136681
outer loop
	vertex -0.02842526 0.1164581 0.01246813
	vertex -0.02977188 0.1164996 -0.01018303
	vertex -0.03117966 0.1163908 0.002915473
endloop
endfacet
facet normal -0.01625369 0.9998639 0.00280178
outer loop
	vertex -0.02977188 0.1164996 -0.01018303
	vertex -0.02842526 0.1164581 0.01246813
	vertex -0.02159425 0.1165426 0.02191805
endloop
endfacet
facet normal -0.4508639 0.8839681 0.1237826
outer loop
	vertex -0.02842526 0.1164581 0.01246813
	vertex -0.03117966 0.1163908 0.002915473
	vertex -0.04034562 0.110198 0.0137548
endloop
endfacet
facet normal -0.4190486 0.8586246 0.2952321
outer loop
	vertex -0.02842526 0.1164581 0.01246813
	vertex -0.04034562 0.110198 0.0137548
	vertex -0.02159425 0.1165426 0.02191805
endloop
endfacet
facet normal -0.5985079 -0.01457184 0.8009844
outer loop
	vertex -0.03419712 0.1078056 0.02943904
	vertex -0.03575267 0.06794669 0.02755158
	vertex -0.01754857 0.06791845 0.04115345
endloop
endfacet
facet normal -0.5851578 -0.006088566 0.8108965
outer loop
	vertex -0.0189241 0.1077217 0.0404597
	vertex -0.03419712 0.1078056 0.02943904
	vertex -0.01754857 0.06791845 0.04115345
endloop
endfacet
facet normal -0.5510538 0.3305801 0.7661961
outer loop
	vertex -0.03419712 0.1078056 0.02943904
	vertex -0.0189241 0.1077217 0.0404597
	vertex -0.02491506 0.1102434 0.03506294
endloop
endfacet
facet normal -0.4190517 0.8586192 0.2952435
outer loop
	vertex -0.03419712 0.1078056 0.02943904
	vertex -0.02159425 0.1165426 0.02191805
	vertex -0.04034562 0.110198 0.0137548
endloop
endfacet
facet normal -0.4115103 0.8580605 0.3072315
outer loop
	vertex -0.02159425 0.1165426 0.02191805
	vertex -0.03419712 0.1078056 0.02943904
	vertex -0.02491506 0.1102434 0.03506294
endloop
endfacet
facet normal -0.5489917 -0.004404404 0.8358161
outer loop
	vertex -0.002395748 0.08287492 0.05118514
	vertex -0.0189241 0.1077217 0.0404597
	vertex -0.01754857 0.06791845 0.04115345
endloop
endfacet
facet normal -0.1441312 0.2500925 0.9574341
outer loop
	vertex -0.006021411 0.1076989 0.04415503
	vertex -0.002395748 0.08287492 0.05118514
	vertex 0.0005824213 0.08321346 0.05154504
endloop
endfacet
facet normal -0.2678305 0.2261134 0.9365573
outer loop
	vertex -0.0189241 0.1077217 0.0404597
	vertex -0.002395748 0.08287492 0.05118514
	vertex -0.006021411 0.1076989 0.04415503
endloop
endfacet
facet normal 0.4092703 0.1092106 0.9058537
outer loop
	vertex 0.003558678 0.07938608 0.05066178
	vertex 0.02093223 0.1076685 0.03940254
	vertex 0.0005824213 0.08321346 0.05154504
endloop
endfacet
facet normal 0.5309607 0.01115646 0.847323
outer loop
	vertex 0.003558678 0.07938608 0.05066178
	vertex 0.02622193 0.0679448 0.03661088
	vertex 0.02093223 0.1076685 0.03940254
endloop
endfacet
facet normal 0.2161594 0.7434829 0.6328571
outer loop
	vertex 0.006310002 0.110192 0.04162041
	vertex 0.007990305 0.1076826 0.0439945
	vertex 0.02206453 0.1102226 0.03620331
endloop
endfacet
facet normal 0.2334644 0.7179378 0.6557894
outer loop
	vertex 0.007990305 0.1076826 0.0439945
	vertex 0.02093223 0.1076685 0.03940254
	vertex 0.02206453 0.1102226 0.03620331
endloop
endfacet
facet normal 0.3287207 0.186188 0.9258924
outer loop
	vertex 0.0005824213 0.08321346 0.05154504
	vertex 0.02093223 0.1076685 0.03940254
	vertex 0.007990305 0.1076826 0.0439945
endloop
endfacet
facet normal -0.006745586 0.9999771 0.0005741537
outer loop
	vertex -0.004977645 0.1167105 -0.01684091
	vertex -0.01455041 0.1166251 0.01943886
	vertex -0.003763945 0.1166999 0.01588386
endloop
endfacet
facet normal -0.008471893 0.9999641 0.0001186209
outer loop
	vertex -0.01455041 0.1166251 0.01943886
	vertex -0.004977645 0.1167105 -0.01684091
	vertex -0.02977188 0.1164996 -0.01018303
endloop
endfacet
facet normal -0.01117558 0.9999365 0.001508055
outer loop
	vertex -0.01455041 0.1166251 0.01943886
	vertex -0.02977188 0.1164996 -0.01018303
	vertex -0.02159425 0.1165426 0.02191805
endloop
endfacet
facet normal 0.006219971 0.9999282 -0.01024395
outer loop
	vertex 5.84317E-05 0.1167082 -0.01726016
	vertex 0.02215606 0.1165364 -0.02060622
	vertex 0.002118743 0.1165448 -0.03195513
endloop
endfacet
facet normal 0.1555713 0.9737023 -0.1664376
outer loop
	vertex 0.01521067 0.1163959 -0.02792014
	vertex 0.02215606 0.1165364 -0.02060622
	vertex 0.02641012 0.1163038 -0.01799098
endloop
endfacet
facet normal 0.007100351 0.999965 -0.004431755
outer loop
	vertex 0.03044085 0.1165972 0.006368421
	vertex 0.02215606 0.1165364 -0.02060622
	vertex 5.84317E-05 0.1167082 -0.01726016
endloop
endfacet
facet normal 0.06894163 0.9973458 -0.02341932
outer loop
	vertex 0.02215606 0.1165364 -0.02060622
	vertex 0.03044085 0.1165972 0.006368421
	vertex 0.02641012 0.1163038 -0.01799098
endloop
endfacet
facet normal -0.01712295 0.9991442 -0.03765243
outer loop
	vertex 0.002118743 0.1165448 -0.03195513
	vertex -0.01270828 0.116395 -0.02918767
	vertex -0.02312964 0.1164981 -0.02171174
endloop
endfacet
facet normal -0.007776425 0.999863 -0.01461143
outer loop
	vertex -0.004977645 0.1167105 -0.01684091
	vertex 0.002118743 0.1165448 -0.03195513
	vertex -0.02312964 0.1164981 -0.02171174
endloop
endfacet
facet normal 0.1470476 0.8836231 -0.4445076
outer loop
	vertex 0.01873363 0.1093662 -0.04072891
	vertex 0.002118743 0.1165448 -0.03195513
	vertex 0.01521067 0.1163959 -0.02792014
endloop
endfacet
facet normal 0.09993938 0.8544433 -0.5098417
outer loop
	vertex 0.002118743 0.1165448 -0.03195513
	vertex 0.01873363 0.1093662 -0.04072891
	vertex -0.002746684 0.1102122 -0.04352165
endloop
endfacet
facet normal -0.0925893 0.8892663 -0.4479204
outer loop
	vertex -0.002746684 0.1102122 -0.04352165
	vertex -0.01270828 0.116395 -0.02918767
	vertex 0.002118743 0.1165448 -0.03195513
endloop
endfacet
facet normal -0.0004708316 0.9999374 -0.01118214
outer loop
	vertex 0.002118743 0.1165448 -0.03195513
	vertex -0.004977645 0.1167105 -0.01684091
	vertex 5.84317E-05 0.1167082 -0.01726016
endloop
endfacet
facet normal -0.8701892 0.01398024 -0.4925193
outer loop
	vertex -0.04412812 0.1076261 -0.01158327
	vertex -0.03199492 0.1076448 -0.03301984
	vertex -0.04348833 0.06794713 -0.01383995
endloop
endfacet
facet normal -0.9988582 -0.01349925 -0.04582883
outer loop
	vertex -0.04449029 0.06794689 0.007998115
	vertex -0.04412812 0.1076261 -0.01158327
	vertex -0.04348833 0.06794713 -0.01383995
endloop
endfacet
facet normal -0.1953457 0.9004704 0.3885782
outer loop
	vertex -0.01493765 0.1156204 0.02761838
	vertex -0.02491506 0.1102434 0.03506294
	vertex -0.005557575 0.1165814 0.03010718
endloop
endfacet
facet normal -0.1914278 0.9088631 0.3705716
outer loop
	vertex -0.01493765 0.1156204 0.02761838
	vertex -0.005557575 0.1165814 0.03010718
	vertex -0.02159425 0.1165426 0.02191805
endloop
endfacet
facet normal -0.20162 0.9021595 0.3813892
outer loop
	vertex -0.01493765 0.1156204 0.02761838
	vertex -0.02159425 0.1165426 0.02191805
	vertex -0.02491506 0.1102434 0.03506294
endloop
endfacet
facet normal 0.01756065 0.8847039 0.4658224
outer loop
	vertex 0.008138755 0.1164093 0.0299177
	vertex -0.005557575 0.1165814 0.03010718
	vertex -0.000366244 0.1102347 0.04196528
endloop
endfacet
facet normal 0.03004645 0.8807572 0.4726139
outer loop
	vertex 0.008138755 0.1164093 0.0299177
	vertex -0.000366244 0.1102347 0.04196528
	vertex 0.006310002 0.110192 0.04162041
endloop
endfacet
facet normal 0.01369876 0.9962564 0.08535646
outer loop
	vertex 0.008138755 0.1164093 0.0299177
	vertex 0.001215002 0.1167026 0.02760523
	vertex -0.005557575 0.1165814 0.03010718
endloop
endfacet
facet normal 0.01939217 0.9974651 0.06846319
outer loop
	vertex 0.008138755 0.1164093 0.0299177
	vertex 0.02084305 0.1166858 0.0222895
	vertex 0.001215002 0.1167026 0.02760523
endloop
endfacet
facet normal 0.1642996 0.86024 0.4826932
outer loop
	vertex 0.008138755 0.1164093 0.0299177
	vertex 0.006310002 0.110192 0.04162041
	vertex 0.02206453 0.1102226 0.03620331
endloop
endfacet
facet normal 0.2179613 0.8922935 0.3953546
outer loop
	vertex 0.008138755 0.1164093 0.0299177
	vertex 0.02206453 0.1102226 0.03620331
	vertex 0.02084305 0.1166858 0.0222895
endloop
endfacet
facet normal -0.001430837 0.9999989 0.0003770468
outer loop
	vertex 0.001215002 0.1167026 0.02760523
	vertex -0.004977645 0.1167105 -0.01684091
	vertex -0.003763945 0.1166999 0.01588386
endloop
endfacet
facet normal 0.0004694536 0.9999999 0.0001122809
outer loop
	vertex 0.001215002 0.1167026 0.02760523
	vertex 5.84317E-05 0.1167082 -0.01726016
	vertex -0.004977645 0.1167105 -0.01684091
endloop
endfacet
facet normal 0.0008804735 0.9999996 0.0001016854
outer loop
	vertex 0.001215002 0.1167026 0.02760523
	vertex 0.02084305 0.1166858 0.0222895
	vertex 5.84317E-05 0.1167082 -0.01726016
endloop
endfacet
facet normal 0.47327 0.8594136 -0.1934521
outer loop
	vertex 0.04247395 0.110198 -0.005816764
	vertex 0.03334138 0.1102216 -0.02805429
	vertex 0.02641012 0.1163038 -0.01799098
endloop
endfacet
facet normal 0.4205216 0.9014431 -0.1027716
outer loop
	vertex 0.02641012 0.1163038 -0.01799098
	vertex 0.03183134 0.1153781 -0.003927466
	vertex 0.04247395 0.110198 -0.005816764
endloop
endfacet
facet normal 0.3018576 0.8936089 -0.3321824
outer loop
	vertex 0.02641012 0.1163038 -0.01799098
	vertex 0.03334138 0.1102216 -0.02805429
	vertex 0.01521067 0.1163959 -0.02792014
endloop
endfacet
facet normal 0.3328865 0.9406254 -0.06641098
outer loop
	vertex 0.02641012 0.1163038 -0.01799098
	vertex 0.03044085 0.1165972 0.006368421
	vertex 0.03183134 0.1153781 -0.003927466
endloop
endfacet
facet normal 0.4276055 0.7237073 -0.5416654
outer loop
	vertex 0.03280188 0.1078214 -0.03168707
	vertex 0.01873363 0.1093662 -0.04072891
	vertex 0.03334138 0.1102216 -0.02805429
endloop
endfacet
facet normal 0.5417567 0.01473038 -0.8404062
outer loop
	vertex 0.03280188 0.1078214 -0.03168707
	vertex 0.03228807 0.06794667 -0.03271721
	vertex 0.01873363 0.1093662 -0.04072891
endloop
endfacet
facet normal 0.7504731 0.494668 -0.438285
outer loop
	vertex 0.03280188 0.1078214 -0.03168707
	vertex 0.03334138 0.1102216 -0.02805429
	vertex 0.04366498 0.1076669 -0.01326056
endloop
endfacet
facet normal 0.8614495 0.002019317 -0.5078393
outer loop
	vertex 0.04366498 0.1076669 -0.01326056
	vertex 0.03228807 0.06794667 -0.03271721
	vertex 0.03280188 0.1078214 -0.03168707
endloop
endfacet
facet normal 0.5223916 0.849864 0.06955724
outer loop
	vertex 0.03044085 0.1165972 0.006368421
	vertex 0.03940657 0.1102084 0.01709229
	vertex 0.04247395 0.110198 -0.005816764
endloop
endfacet
facet normal 0.5244352 0.8485819 0.06983145
outer loop
	vertex 0.03940657 0.1102084 0.01709229
	vertex 0.044347 0.1078486 0.008666348
	vertex 0.04247395 0.110198 -0.005816764
endloop
endfacet
facet normal 0.4055552 0.8934222 0.1931883
outer loop
	vertex 0.03940657 0.1102084 0.01709229
	vertex 0.03044085 0.1165972 0.006368421
	vertex 0.0260431 0.1162974 0.01698691
endloop
endfacet
facet normal 0.8470447 0.3523191 0.3979781
outer loop
	vertex 0.03940657 0.1102084 0.01709229
	vertex 0.03508908 0.1078191 0.02839671
	vertex 0.044347 0.1078486 0.008666348
endloop
endfacet
facet normal 0.3921753 0.8582082 0.3311755
outer loop
	vertex 0.03940657 0.1102084 0.01709229
	vertex 0.02084305 0.1166858 0.0222895
	vertex 0.03508908 0.1078191 0.02839671
endloop
endfacet
facet normal 0.3907421 0.8631054 0.3199528
outer loop
	vertex 0.02084305 0.1166858 0.0222895
	vertex 0.03940657 0.1102084 0.01709229
	vertex 0.0260431 0.1162974 0.01698691
endloop
endfacet
facet normal 0.4933455 0.5862224 0.6426146
outer loop
	vertex 0.02206453 0.1102226 0.03620331
	vertex 0.02093223 0.1076685 0.03940254
	vertex 0.03508908 0.1078191 0.02839671
endloop
endfacet
facet normal 0.3750971 0.8528537 0.3632393
outer loop
	vertex 0.03508908 0.1078191 0.02839671
	vertex 0.02084305 0.1166858 0.0222895
	vertex 0.02206453 0.1102226 0.03620331
endloop
endfacet
facet normal -0.1545532 0.8202534 0.5507245
outer loop
	vertex -0.006021411 0.1076989 0.04415503
	vertex -0.000366244 0.1102347 0.04196528
	vertex -0.02491506 0.1102434 0.03506294
endloop
endfacet
facet normal -0.1579353 0.8157113 0.5564815
outer loop
	vertex -0.006021411 0.1076989 0.04415503
	vertex -0.02491506 0.1102434 0.03506294
	vertex -0.0189241 0.1077217 0.0404597
endloop
endfacet
facet normal -0.1446095 0.8446666 0.5153897
outer loop
	vertex -0.02491506 0.1102434 0.03506294
	vertex -0.000366244 0.1102347 0.04196528
	vertex -0.005557575 0.1165814 0.03010718
endloop
endfacet
facet normal 0.2932819 0.8698286 -0.3967162
outer loop
	vertex 0.01873363 0.1093662 -0.04072891
	vertex 0.01521067 0.1163959 -0.02792014
	vertex 0.03334138 0.1102216 -0.02805429
endloop
endfacet
facet normal 0.5021012 0.8400839 -0.2053131
outer loop
	vertex 0.04247395 0.110198 -0.005816764
	vertex 0.04366498 0.1076669 -0.01326056
	vertex 0.03334138 0.1102216 -0.02805429
endloop
endfacet
facet normal 0.8660855 0.4989292 -0.03107275
outer loop
	vertex 0.04247395 0.110198 -0.005816764
	vertex 0.044347 0.1078486 0.008666348
	vertex 0.04366498 0.1076669 -0.01326056
endloop
endfacet
facet normal 0.4301361 0.9014528 -0.04863922
outer loop
	vertex 0.03044085 0.1165972 0.006368421
	vertex 0.04247395 0.110198 -0.005816764
	vertex 0.03183134 0.1153781 -0.003927466
endloop
endfacet
facet normal 0.6133807 0.02620566 0.7893525
outer loop
	vertex 0.03508908 0.1078191 0.02839671
	vertex 0.02093223 0.1076685 0.03940254
	vertex 0.02622193 0.0679448 0.03661088
endloop
endfacet
facet normal 0.7437804 -0.02782307 0.6678448
outer loop
	vertex 0.02622193 0.0679448 0.03661088
	vertex 0.03838475 0.06794696 0.0230652
	vertex 0.03508908 0.1078191 0.02839671
endloop
endfacet
facet normal 0.9051372 0.01802122 0.4247374
outer loop
	vertex 0.03838475 0.06794696 0.0230652
	vertex 0.044347 0.1078486 0.008666348
	vertex 0.03508908 0.1078191 0.02839671
endloop
endfacet
facet normal 0.1084002 0.7987767 -0.5917812
outer loop
	vertex -0.002746684 0.1102122 -0.04352165
	vertex 0.01873363 0.1093662 -0.04072891
	vertex 0.002534852 0.1077915 -0.0458216
endloop
endfacet
facet normal -0.1278117 0.5222442 -0.8431637
outer loop
	vertex 0.002534852 0.1077915 -0.0458216
	vertex -0.01461798 0.1077059 -0.04327451
	vertex -0.002746684 0.1102122 -0.04352165
endloop
endfacet
facet normal -0.189164 0.8469965 -0.4968037
outer loop
	vertex -0.002746684 0.1102122 -0.04352165
	vertex -0.01461798 0.1077059 -0.04327451
	vertex -0.01270828 0.116395 -0.02918767
endloop
endfacet
facet normal 0.9998679 -0.009088117 0.01347335
outer loop
	vertex 0.04424877 0.06794672 -0.01095857
	vertex 0.044347 0.1078486 0.008666348
	vertex 0.04396093 0.06794693 0.01040227
endloop
endfacet
facet normal 0.9151608 0.008677648 0.4029954
outer loop
	vertex 0.04396093 0.06794693 0.01040227
	vertex 0.044347 0.1078486 0.008666348
	vertex 0.03838475 0.06794696 0.0230652
endloop
endfacet
facet normal 0.0004710104 -0.9999999 1.611318E-05
outer loop
	vertex 0.04396093 0.06794693 0.01040227
	vertex -0.01754857 0.06791845 0.04115345
	vertex 0.04424877 0.06794672 -0.01095857
endloop
endfacet
facet normal 0.00543706 0.9999825 -0.002292957
outer loop
	vertex 5.84317E-05 0.1167082 -0.01726016
	vertex 0.02084305 0.1166858 0.0222895
	vertex 0.03044085 0.1165972 0.006368421
endloop
endfacet
facet normal 0.1754632 0.9793614 0.1003198
outer loop
	vertex 0.02084305 0.1166858 0.0222895
	vertex 0.0260431 0.1162974 0.01698691
	vertex 0.03044085 0.1165972 0.006368421
endloop
endfacet
facet normal 0.8762281 -0.01503645 -0.4816619
outer loop
	vertex 0.04366498 0.1076669 -0.01326056
	vertex 0.04424877 0.06794672 -0.01095857
	vertex 0.03228807 0.06794667 -0.03271721
endloop
endfacet
facet normal 0.9994303 0.0128813 -0.03119319
outer loop
	vertex 0.04366498 0.1076669 -0.01326056
	vertex 0.044347 0.1078486 0.008666348
	vertex 0.04424877 0.06794672 -0.01095857
endloop
endfacet
facet normal -0.2583691 0.891358 -0.3724598
outer loop
	vertex -0.02648997 0.1101986 -0.03445652
	vertex -0.02312964 0.1164981 -0.02171174
	vertex -0.01270828 0.116395 -0.02918767
endloop
endfacet
facet normal -0.1909377 0.8468077 -0.4964468
outer loop
	vertex -0.02648997 0.1101986 -0.03445652
	vertex -0.01270828 0.116395 -0.02918767
	vertex -0.01461798 0.1077059 -0.04327451
endloop
endfacet
facet normal -0.4342724 0.5238833 -0.7327713
outer loop
	vertex -0.03199492 0.1076448 -0.03301984
	vertex -0.02648997 0.1101986 -0.03445652
	vertex -0.01461798 0.1077059 -0.04327451
endloop
endfacet
facet normal -0.0001469536 -0.9999999 -0.0003420133
outer loop
	vertex -0.01840717 0.06794694 -0.04178145
	vertex -0.01754857 0.06791845 0.04115345
	vertex -0.03251056 0.06794567 -0.03199647
endloop
endfacet
facet normal -0.0001090764 -0.9999999 -0.0003424055
outer loop
	vertex -0.01840717 0.06794694 -0.04178145
	vertex -0.002158524 0.06794656 -0.04584787
	vertex -0.01754857 0.06791845 0.04115345
endloop
endfacet
facet normal -0.2427539 -0.01329067 -0.9699968
outer loop
	vertex -0.01461798 0.1077059 -0.04327451
	vertex -0.002158524 0.06794656 -0.04584787
	vertex -0.01840717 0.06794694 -0.04178145
endloop
endfacet
facet normal -0.5082087 0.01609821 -0.8610834
outer loop
	vertex -0.01840717 0.06794694 -0.04178145
	vertex -0.03199492 0.1076448 -0.03301984
	vertex -0.01461798 0.1077059 -0.04327451
endloop
endfacet
facet normal -0.5699853 -0.0137743 -0.8215394
outer loop
	vertex -0.03199492 0.1076448 -0.03301984
	vertex -0.01840717 0.06794694 -0.04178145
	vertex -0.03251056 0.06794567 -0.03199647
endloop
endfacet
facet normal 0.2972482 0.02873081 -0.9543679
outer loop
	vertex 0.002534852 0.1077915 -0.0458216
	vertex 0.01873363 0.1093662 -0.04072891
	vertex 0.01500251 0.06794696 -0.04313791
endloop
endfacet
facet normal 0.1559568 -0.01771895 -0.987605
outer loop
	vertex 0.01500251 0.06794696 -0.04313791
	vertex -0.002158524 0.06794656 -0.04584787
	vertex 0.002534852 0.1077915 -0.0458216
endloop
endfacet
facet normal -0.146947 0.01796127 -0.9889813
outer loop
	vertex 0.002534852 0.1077915 -0.0458216
	vertex -0.002158524 0.06794656 -0.04584787
	vertex -0.01461798 0.1077059 -0.04327451
endloop
endfacet
facet normal -0.01010129 0.9999313 -0.005950376
outer loop
	vertex -0.004977645 0.1167105 -0.01684091
	vertex -0.02312964 0.1164981 -0.02171174
	vertex -0.02977188 0.1164996 -0.01018303
endloop
endfacet
facet normal 0.0003137278 -1 -0.0001704014
outer loop
	vertex 0.04424877 0.06794672 -0.01095857
	vertex -0.01754857 0.06791845 0.04115345
	vertex 0.03228807 0.06794667 -0.03271721
endloop
endfacet
facet normal 0.0001520892 -0.9999999 -0.0002794504
outer loop
	vertex 0.01500251 0.06794696 -0.04313791
	vertex 0.03228807 0.06794667 -0.03271721
	vertex -0.01754857 0.06791845 0.04115345
endloop
endfacet
facet normal 7.202202E-05 -0.9999999 -0.0003103702
outer loop
	vertex -0.01754857 0.06791845 0.04115345
	vertex -0.002158524 0.06794656 -0.04584787
	vertex 0.01500251 0.06794696 -0.04313791
endloop
endfacet
facet normal 0.5162905 0.003301547 -0.8564072
outer loop
	vertex 0.01500251 0.06794696 -0.04313791
	vertex 0.01873363 0.1093662 -0.04072891
	vertex 0.03228807 0.06794667 -0.03271721
endloop
endfacet
facet normal -0.8557422 -0.002222429 -0.5173976
outer loop
	vertex -0.04348833 0.06794713 -0.01383995
	vertex -0.03199492 0.1076448 -0.03301984
	vertex -0.03251056 0.06794567 -0.03199647
endloop
endfacet
facet normal -0.0005592239 -0.9999998 -0.000257688
outer loop
	vertex -0.04348833 0.06794713 -0.01383995
	vertex -0.03251056 0.06794567 -0.03199647
	vertex -0.01754857 0.06791845 0.04115345
endloop
endfacet
facet normal -0.0009864372 -0.9999995 -5.617636E-05
outer loop
	vertex -0.04348833 0.06794713 -0.01383995
	vertex -0.01754857 0.06791845 0.04115345
	vertex -0.04449029 0.06794689 0.007998115
endloop
endfacet
facet normal -0.002318187 -0.9999967 0.001025993
outer loop
	vertex -0.03575267 0.06794669 0.02755158
	vertex -0.04449029 0.06794689 0.007998115
	vertex -0.01754857 0.06791845 0.04115345
endloop
endfacet
endsolid wrist3_0
